<svg width="59" height="60" viewBox="0 0 59 60" fill="none" xmlns="http://www.w3.org/2000/svg">
<path d="M59 30C59 46.5726 45.7964 60 29.5 60C13.2036 60 0 46.5726 0 30C0 13.4274 13.2036 0 29.5 0C45.7964 0 59 13.4274 59 30ZM31.5222 43.7782L47.6401 27.3871C48.7583 26.25 48.7583 24.4113 47.6401 23.2863L45.6179 21.2298C44.4998 20.0927 42.6917 20.0927 41.5855 21.2298L29.5 33.5202L17.4145 21.2298C16.2964 20.0927 14.4883 20.0927 13.3821 21.2298L11.3599 23.2863C10.2417 24.4234 10.2417 26.2621 11.3599 27.3871L27.4778 43.7782C28.596 44.9153 30.404 44.9153 31.5222 43.7782Z" fill="white"/>
</svg>
